<svg xmlns="http://www.w3.org/2000/svg" viewBox="0 0 186.89 187.86"><defs><style>.cls-1{fill:#fefefe;}.cls-2{fill:#d8d8d8;}.cls-3{fill:#aeaeae;}.cls-4{fill:#d9d9d9;}.cls-5{fill:#b1b1b1;}.cls-6{fill:#aaacae;}</style></defs><title>moon</title><g id="Layer_2" data-name="Layer 2"><g id="Layer_1-2" data-name="Layer 1"><ellipse class="cls-1" cx="93.45" cy="93.93" rx="93.45" ry="93.93"/><path class="cls-2" d="M185.55,102.81c1.54,9.87-2.61,18.54-6.24,27.14-12.8,30.3-36,48.9-67.69,55.58-30.59,6.46-58-1.86-81.49-22.88C18.82,152.51,10.73,140.21,5,126.22a4.59,4.59,0,0,1,0-2.87c17.23,21.86,39.22,34.7,67.11,35.42s51-10.24,68.25-32.13C166.94,92.91,165.89,39.46,124,6c30.18,7.32,64.54,44.54,62.62,90.64C185.43,98.57,186.93,101,185.55,102.81Z"/><path class="cls-2" d="M58.33,64.14c4.94,3.3,6.43,11.46,3.41,18.73-2.38,5.73-10.5,10-17,8.33-2.76-.69-6.37-.6-7.69-4.23-3.09-7.32-2.77-14.42,3.15-20C45.26,62.2,51.53,60.33,58.33,64.14Z"/><path class="cls-3" d="M58.33,64.14a76.17,76.17,0,0,0-8.64-.05C42,64.88,37.17,70.59,37,78.93c-.05,2.68,0,5.36,0,8a16.52,16.52,0,0,1,.22-24A14.45,14.45,0,0,1,58.33,64.14Z"/><path class="cls-2" d="M88.37,115.1c4,3.58,3,7.75.24,11-2.64,3.12-6.51,4.32-10.42,1.33C75,118.63,78,115,88.37,115.1Z"/><path class="cls-4" d="M115.83,50.19c4,3.58,3,7.69.25,11-2.22,2.74-5.63,4.31-9.17,1.32C103.79,54.06,106.32,50.55,115.83,50.19Z"/><path class="cls-5" d="M88.37,115.1c-.48.36-.92.94-1.46,1.06-8.79,2-8.79,1.95-8.72,11.31-4.74-3.12-5.07-7.5-2-11.52C79.5,111.49,84,111.45,88.37,115.1Z"/><path class="cls-5" d="M115.83,50.19c-6.35,1.68-10.76,4.77-8.92,12.37-4.73-3.12-5-7.43-2.07-11.53S111.87,46.6,115.83,50.19Z"/><path class="cls-6" d="M185.55,102.81c.21-2.07-.72-4.35,1.1-6.13C186.29,98.73,188,101.14,185.55,102.81Z"/></g></g></svg>