<svg xmlns="http://www.w3.org/2000/svg" viewBox="0 0 266.41 266.41"><defs><style>.cls-1{fill:#7dd0de;}.cls-2{fill:#6bbc82;}</style></defs><title>Asset 1</title><g id="Layer_2" data-name="Layer 2"><g id="_1" data-name="1"><circle class="cls-1" cx="133.2" cy="133.2" r="133.2"/><path class="cls-2" d="M175.69,15.46c-12.62,6.19-27.05,17-24,30.71.84,3.73,3,7.31,2.47,11.09-1.3,9.19-17.27,15.06-12.28,22.88,17.67,8.48,40.55,4.44,54.25-9.58,3.45-3.54,6.5-7.73,11-9.84,12.14-5.75,26.85,6.62,39.4,2.51A133.67,133.67,0,0,0,183.86,10,31.1,31.1,0,0,1,175.69,15.46Z"/><path class="cls-2" d="M13.77,74.23a45.5,45.5,0,0,0,11.81,5.14c15,4.06,30.82,1.64,46.12-.8,9.58-5.35-.39-20.21,2.1-30.9,1-4.33,4.17-7.81,6-11.86,3.53-7.75,1.91-16-1.88-23.79A133.69,133.69,0,0,0,13.77,74.23Z"/><path class="cls-2" d="M222.76,231.81c.11-19.19,16.85-39.46,6.21-55.4-5.63-8.43-17.19-11.52-22.44-20.19-4.5-7.42-3.57-17.73-9.68-23.9-3.43-3.47-8.45-4.85-13.29-5.44-22.18-2.7-45.4,9.9-55.24,30-2.6,5.3-4.37,11.09-8,15.71-12,15.12-39.78,12.92-47.6,30.57-4,9.11-.24,20.38,7.21,27s17.76,9.2,27.72,9.4c4,.08,8.3-.14,11.85,1.8,4.54,2.48,6.63,7.73,8.78,12.43a90.24,90.24,0,0,0,7.09,12.62A132.7,132.7,0,0,0,222.76,231.81Z"/></g></g></svg>