<?xml version="1.0" encoding="utf-8"?>
<!-- Generator: Adobe Illustrator 20.0.0, SVG Export Plug-In . SVG Version: 6.00 Build 0)  -->
<svg version="1.1" id="Layer_1" xmlns="http://www.w3.org/2000/svg" xmlns:xlink="http://www.w3.org/1999/xlink" x="0px" y="0px"
	 viewBox="0 0 266.4 266.4" style="enable-background:new 0 0 266.4 266.4;" xml:space="preserve">
<style type="text/css">
	.st0{fill:#24383A;}
	.st1{fill:#2F4434;}
	.st2{fill:#00D838;}
	.st3{fill:#2F4434;stroke:#FF5300;stroke-miterlimit:10;}
	.st4{opacity:0.52;fill:#FFE500;}
	.st5{fill:#FFE500;}
</style>
<title>Asset 1</title>
<g id="Layer_2">
	<g id="_1">
		<circle class="st0" cx="133.2" cy="133.2" r="133.2"/>
		<path class="st1" d="M175.7,15.5c-12.6,6.2-27.1,17-24,30.7c0.8,3.7,3,7.3,2.5,11.1c-1.3,9.2-17.3,15.1-12.3,22.9
			c17.7,8.5,40.6,4.4,54.3-9.6c3.4-3.5,6.5-7.7,11-9.8c12.1-5.8,26.9,6.6,39.4,2.5c-14.8-23.9-36.7-42.5-62.7-53.2
			C181.4,12.2,178.7,14.1,175.7,15.5z"/>
		<path class="st1" d="M13.8,74.2c3.7,2.3,7.6,4,11.8,5.1c15,4.1,30.8,1.6,46.1-0.8c9.6-5.3-0.4-20.2,2.1-30.9c1-4.3,4.2-7.8,6-11.9
			c3.5-7.8,1.9-16-1.9-23.8C50,24.8,27.4,46.7,13.8,74.2z"/>
		<path class="st1" d="M222.8,231.8c0.1-19.2,16.9-39.5,6.2-55.4c-5.6-8.4-17.2-11.5-22.4-20.2c-4.5-7.4-3.6-17.7-9.7-23.9
			c-3.4-3.5-8.4-4.8-13.3-5.4c-22.2-2.7-45.4,9.9-55.2,30c-2.6,5.3-4.4,11.1-8,15.7c-12,15.1-39.8,12.9-47.6,30.6
			c-4,9.1-0.2,20.4,7.2,27s17.8,9.2,27.7,9.4c4,0.1,8.3-0.1,11.8,1.8c4.5,2.5,6.6,7.7,8.8,12.4c2,4.4,4.4,8.6,7.1,12.6
			C167.7,265.9,198.8,253.6,222.8,231.8z"/>
	</g>
</g>
<path class="st2" d="M107,52"/>
<path class="st3" d="M392,186"/>
<path class="st4" d="M186,23c-6.4,0-6.4,10,0,10C192.4,33,192.4,23,186,23z"/>
<path class="st4" d="M208,34c-6.4,0-6.4,10,0,10C214.4,44,214.4,34,208,34z"/>
<path class="st4" d="M189,34c-6.4,0-6.4,10,0,10C195.4,44,195.4,34,189,34z"/>
<path class="st4" d="M196,49c-2.2,0-3.7,1.2-4.4,2.7c-0.7-0.5-1.6-0.7-2.6-0.7c-3.2,0-4.9,2.5-4.8,5.1c-5.6,0.8-5.3,9.9,0.8,9.9
	c3.2,0,4.9-2.5,4.8-5.1c1.7-0.3,2.9-1.3,3.5-2.7c0.7,0.5,1.6,0.7,2.6,0.7C202.4,59,202.4,49,196,49z"/>
<path class="st4" d="M220.8,54.8c0.4-2.7-1.2-5.8-4.8-5.8c-1.4,0-2.4,0.5-3.2,1.2c-0.3-2.2-1.9-4.2-4.8-4.2c-6.4,0-6.4,10,0,10
	c1.4,0,2.4-0.5,3.2-1.2c0.1,0.9,0.5,1.7,1,2.4c-0.4,2.7,1.2,5.8,4.8,5.8C221.7,63,223,57.6,220.8,54.8z"/>
<path class="st4" d="M233,65c-6.4,0-6.4,10,0,10C239.4,75,239.4,65,233,65z"/>
<path class="st4" d="M233,51c-6.4,0-6.4,10,0,10C239.4,61,239.4,51,233,51z"/>
<path class="st4" d="M226,38c-6.4,0-6.4,10,0,10C232.4,48,232.4,38,226,38z"/>
<path class="st4" d="M182,67c-3.3,0-4.9,2.6-4.8,5.1c-0.4-0.1-0.8-0.1-1.2-0.1c-6.4,0-6.4,10,0,10c3.3,0,4.9-2.6,4.8-5.1
	c0.4,0.1,0.8,0.1,1.2,0.1C188.4,77,188.4,67,182,67z"/>
<path class="st4" d="M178.4,48.2c1.3-3-0.2-7.2-4.4-7.2c-5.9,0-6.4,8.5-1.4,9.8c-1.3,3,0.2,7.2,4.4,7.2
	C182.9,58,183.4,49.5,178.4,48.2z"/>
<path class="st4" d="M164,63c-6.4,0-6.4,10,0,10C170.4,73,170.4,63,164,63z"/>
<path class="st4" d="M197.5,141.5c-0.4-0.4-0.8-0.7-1.3-0.9c4.1-2,3.4-9.5-2.2-9.5c-5.6,0-6.3,7.6-2.2,9.5c-0.5,0.2-1,0.5-1.3,0.9
	c-0.9,1-1.5,2.2-1.5,3.5v0.1c-0.3-0.1-0.7-0.1-1-0.1c-1.3,0.1-2.6,0.5-3.5,1.5c-0.4,0.4-0.7,0.9-1,1.4c-0.3-0.1-0.5-0.3-0.8-0.4
	c0.2-0.5,0.3-1,0.3-1.5v-1c0-1.3-0.6-2.6-1.5-3.5c-0.2-0.2-0.4-0.3-0.6-0.5h0c1.3,0,2.6-0.6,3.5-1.5c0.9-0.9,1.5-2.3,1.5-3.5
	c-0.1-1.3-0.5-2.6-1.5-3.5c-1-0.9-2.2-1.5-3.5-1.5h-1c-1.3,0-2.6,0.6-3.5,1.5c-0.9-0.9-2.1-1.5-3.5-1.5h-3c-1.3,0-2.6,0.6-3.5,1.5
	c-0.2,0.2-0.3,0.4-0.5,0.6c-0.1-0.2-0.3-0.4-0.5-0.6c-1-0.9-2.2-1.5-3.5-1.5c-0.3,0-0.7,0-1,0c-1.3,0-2.6,0.6-3.5,1.5
	c-0.9,0.9-1.5,2.3-1.5,3.5c0.1,1.3,0.5,2.6,1.5,3.5c0.5,0.5,1.2,0.9,1.8,1.1c-1.6,2-1.5,5.1,0.3,7c-0.8,0.4-1.5,1.1-1.8,1.8
	c-0.6,1.2-0.9,2.6-0.5,3.9c0.4,1.3,1.2,2.2,2.3,3c1,0.7,2,1.3,3,2c1,0.7,2.7,0.8,3.9,0.5c1.2-0.3,2.4-1.2,3-2.3
	c0.6-1.2,0.9-2.6,0.5-3.9c-0.4-1.3-1.2-2.2-2.3-3c-0.3-0.2-0.7-0.5-1-0.7c1.1-0.1,2.2-0.6,3-1.4c0.2-0.2,0.3-0.4,0.5-0.6
	c0.8,1.2,2.1,2,4,2c0,0,0,0,0,0c0.1,0.2,0.3,0.4,0.4,0.5c0.1,0.1,0.2,0.1,0.2,0.2c-0.7,0.3-1.4,0.7-2.2,1c-2.4,1.1-3.2,4.7-1.8,6.8
	c1.6,2.4,4.3,3,6.8,1.8c2-1,4-1.9,6-2.9c0.6-0.3,1.2-0.8,1.6-1.4c0.8,0.6,1.9,0.9,2.8,0.9c0.1,0,0.3,0,0.4-0.1
	c0.2,0,0.4,0.1,0.6,0.1c2.8,0,4.4-1.9,4.7-4c0.1,0,0.2,0,0.3,0c1.3-0.1,2.6-0.5,3.5-1.5c0.9-1,1.5-2.2,1.5-3.5v-2
	C199,143.7,198.4,142.4,197.5,141.5z"/>
<path class="st4" d="M152.9,164.1c0.7-0.9,1.1-1.9,1.1-3.1v-1c0-1.3-0.6-2.6-1.5-3.5c-0.9-0.9-2.3-1.5-3.5-1.5
	c-1.3,0.1-2.6,0.5-3.5,1.5c-0.9,1-1.5,2.2-1.5,3.5v1c0,1.3,0.6,2.6,1.5,3.5c0.2,0.2,0.4,0.3,0.6,0.5c-0.2,0.1-0.4,0.3-0.6,0.5
	c-0.9,0.9-1.5,2.3-1.5,3.5c0.1,2.7,2.2,5,5,5h3c1.3,0,2.6-0.6,3.5-1.5c0.9-0.9,1.5-2.3,1.5-3.5C156.9,166.6,155.2,164.5,152.9,164.1
	z"/>
<path class="st4" d="M205,181c-6.4,0-6.4,10,0,10C211.4,191,211.4,181,205,181z"/>
<path class="st4" d="M200,242c-6.4,0-6.4,10,0,10C206.4,252,206.4,242,200,242z"/>
<path class="st4" d="M196,196c-6.4,0-6.4,10,0,10C202.4,206,202.4,196,196,196z"/>
<path class="st4" d="M169,214c-6.4,0-6.4,10,0,10C175.4,224,175.4,214,169,214z"/>
<path class="st4" d="M150,239c-6.4,0-6.4,10,0,10C156.4,249,156.4,239,150,239z"/>
<path class="st4" d="M143,210c-6.4,0-6.4,10,0,10C149.4,220,149.4,210,143,210z"/>
<path class="st4" d="M103.5,196.5c-1-0.9-2.2-1.5-3.5-1.5c-0.3,0-0.7,0-1,0c-0.3,0-0.6,0-1,0.1c-0.3-0.1-0.7-0.1-1-0.1
	c-1.3,0-2.3,0.4-3.1,1c2-2.9,0.7-8-3.9-8c-6.4,0-6.4,10,0,10c1.3,0,2.3-0.4,3.1-1c-0.8,1.2-1.1,2.7-0.8,4.1
	c-5.7,0.7-5.5,9.9,0.7,9.9c3.7,0,5.2-3.3,4.7-6.1c0.1,0,0.2,0,0.3-0.1c0.3,0.1,0.7,0.1,1,0.1c0.3,0,0.7,0,1,0c1.3,0,2.6-0.6,3.5-1.5
	c0.9-0.9,1.5-2.3,1.5-3.5C104.9,198.7,104.5,197.4,103.5,196.5z"/>
<path class="st4" d="M111,190c-6.4,0-6.4,10,0,10C117.4,200,117.4,190,111,190z"/>
<path class="st4" d="M104,182c-6.4,0-6.4,10,0,10C110.4,192,110.4,182,104,182z"/>
<path class="st4" d="M144,139c-6.4,0-6.4,10,0,10C150.4,149,150.4,139,144,139z"/>
<path class="st4" d="M132,168c-6.4,0-6.4,10,0,10C138.4,178,138.4,168,132,168z"/>
<path class="st4" d="M158,195c-6.4,0-6.4,10,0,10C164.4,205,164.4,195,158,195z"/>
<path class="st4" d="M190.8,171.7c-0.3-1.2-1.2-2.4-2.3-3c-1.2-0.6-2.6-0.9-3.9-0.5c-1.2,0.4-2.4,1.1-3,2.3c-0.3,0.7-0.7,1.3-1,2
	c-0.6,1.2-0.9,2.5-0.5,3.9c0.3,1.2,1.2,2.4,2.3,3c1.2,0.6,2.6,0.9,3.9,0.5c1.2-0.4,2.4-1.1,3-2.3c0.3-0.7,0.7-1.3,1-2
	C190.9,174.3,191.2,173,190.8,171.7z"/>
<path class="st4" d="M74,20c-6.4,0-6.4,10,0,10C80.4,30,80.4,20,74,20z"/>
<path class="st4" d="M70,42c-6.4,0-6.4,10,0,10C76.4,52,76.4,42,70,42z"/>
<path class="st4" d="M54,64c-6.4,0-6.4,10,0,10C60.4,74,60.4,64,54,64z"/>
<path class="st4" d="M42.5,47.5c-1-0.9-2.2-1.5-3.5-1.5c-1.3,0.1-2.6,0.5-3.5,1.5l-1,1C33.6,49.4,33,50.7,33,52
	c0,1.2,0.5,2.7,1.5,3.5c1,0.9,2.2,1.5,3.5,1.5c1.3-0.1,2.6-0.5,3.5-1.5l1-1c0.9-0.9,1.5-2.3,1.5-3.5C44,49.8,43.5,48.3,42.5,47.5z"
	/>
<path class="st4" d="M31,66c-6.4,0-6.4,10,0,10C37.4,76,37.4,66,31,66z"/>
<path class="st4" d="M54,53c-6.4,0-6.4,10,0,10C60.4,63,60.4,53,54,53z"/>
<path class="st4" d="M75.5,66.5c-0.6-0.5-1.2-0.9-1.9-1.2C77.3,63,76.4,56,71,56c-1.5,0-2.7,0.6-3.5,1.4c-0.8-0.9-2-1.4-3.5-1.4
	c-6.4,0-6.4,10,0,10c1.5,0,2.7-0.6,3.5-1.4c0.4,0.4,0.8,0.7,1.3,1c-0.5,0.2-1,0.5-1.4,0.9c-0.9,0.9-1.5,2.3-1.5,3.5
	c0.1,1.3,0.5,2.6,1.5,3.5c1,0.9,2.2,1.5,3.5,1.5c0.3,0,0.7,0,1,0c1.3,0,2.6-0.6,3.5-1.5c0.9-0.9,1.5-2.3,1.5-3.5
	C76.9,68.7,76.5,67.4,75.5,66.5z"/>
<path class="st4" d="M56,75c-6.4,0-6.4,10,0,10C62.4,85,62.4,75,56,75z"/>
<path class="st5" d="M118,185c-6.4,0-6.4,10,0,10C124.4,195,124.4,185,118,185z"/>
<path class="st5" d="M100,185c-6.4,0-6.4,10,0,10C106.4,195,106.4,185,100,185z"/>
<path class="st5" d="M185,135c-6.4,0-6.4,10,0,10C191.4,145,191.4,135,185,135z"/>
<path class="st5" d="M163,145c-6.4,0-6.4,10,0,10C169.4,155,169.4,145,163,145z"/>
<path class="st5" d="M166,132c-6.4,0-6.4,10,0,10C172.4,142,172.4,132,166,132z"/>
<path class="st5" d="M193,47c-6.4,0-6.4,10,0,10C199.4,57,199.4,47,193,47z"/>
<path class="st5" d="M217,47c-1.9,0-3.2,0.8-4,2c-0.8-0.6-1.8-1-3-1c-6.4,0-6.4,10,0,10c1.9,0,3.2-0.8,4-2c0.8,0.6,1.8,1,3,1
	C223.4,57,223.4,47,217,47z"/>
<path class="st5" d="M203,36c-6.4,0-6.4,10,0,10C209.4,46,209.4,36,203,36z"/>
<path class="st5" d="M69,62c-6.4,0-6.4,10,0,10C75.4,72,75.4,62,69,62z"/>
<path class="st5" d="M55,55c-6.4,0-6.4,10,0,10C61.4,65,61.4,55,55,55z"/>
<path class="st5" d="M57,72c-6.4,0-6.4,10,0,10C63.4,82,63.4,72,57,72z"/>
<path class="st5" d="M180,208c-6.4,0-6.4,10,0,10C186.4,218,186.4,208,180,208z"/>
</svg>
