<svg xmlns="http://www.w3.org/2000/svg" viewBox="0 0 82.29 164.55"><defs><style>.cls-1{fill:#544032;}.cls-2{fill:#1e180f;}.cls-3{fill:#91788e;}.cls-4{fill:#bc8e96;}.cls-5{fill:#6f574a;}.cls-6{fill:#fefefe;}</style></defs><title>Profile</title><g id="Layer_2" data-name="Layer 2"><g id="Layer_1-2" data-name="Layer 1"><path class="cls-1" d="M49.36,111.95c-.84,3.51-3.8,5.61-5.64,8.46-1,1.48-2.19,2.78-2.82,4.47-2.29,1.46-4.34,3.37-7.23,3.67a1.85,1.85,0,0,0-1.78,2c-.86,1.35-2.31,1.43-3.67,1.69l-5.34-6.63c0-1.61-1.14-2.78-1.71-4.17-.1-1,.16-2-.4-2.91A54.85,54.85,0,0,1,16.49,108a5.49,5.49,0,0,1,2.85,3.21c1.35,3.25,4.08,5.55,6,8.4a1.69,1.69,0,0,0,2.35.63,1.66,1.66,0,0,0,.48-2.16,4.44,4.44,0,0,1,0-3.45c.27-.81.14-1.61-.94-1.81a1.26,1.26,0,0,1-.18-.54c-.44-1.8,1.13-4-1.11-5.44l-.29-1.53c.31-1.07,0-1.76-1.17-1.94l-2.4-.32-.48-.71c2.77-.71,5.36-1.69,8.41-1.76,4.31-.1,7.11-3.49,7.48-8.12-2.16,3.26-4.54,3.3-7.2,1.88a3.4,3.4,0,0,0-1.77,0c-3.34.36-5.32-1.45-5.13-4.8,0-.73-.17-1.14-.87-1.29-1-1.39-.19-3.88-2.61-4.45l-.64-2.08c.6-.42.68-.83,0-1.24l0,0,.07-1.86c.34.18.83.26,1,.54,1.77,3.22,4.12,5.59,8.06,5.85.88.06,1.77.49,2.54-.16a1.16,1.16,0,0,0,.1-1.07c-.48-1-1.39-.9-2.32-.79-1.86.23-3.73-2-3.61-2.23,1.39-2.35-.71-4.41-.33-6.57l1.74,1.6c.26.33.65.52.88.11.32-.58-.17-.78-.64-.91l-.12-2.32c1.37-1.1,3.08-.39,4.6-.86,1.83-.57,2.91-1.18,1.62-3.28-.86-1.4-.68-2.75.06-4.39a15.35,15.35,0,0,0,1.33-7.81c-.23-2.28-2.21-2.34-3.8-2.58-1.35-.21-.83,1-.8,1.67.23,1.62-.64,3.05-.8,4.61-1.9,0-4-.4-5.65.2-2.17.76-3.77-.1-5.28-1-1.13-.7-2.61-2-.66-3.52,1-.83.64-1.51-.12-2.2s-1.56-1-1.69-2l.13,0c.95-.48,2.38-.72,1.17-2.3L17,47.5a1.07,1.07,0,0,0,.54-1.08,2.13,2.13,0,0,1,1.73-.77l1.46.37c-1.33,1.41-2.17,2.44.55,3.53A23.46,23.46,0,0,0,28,51.12L27,48.8c.6,0,1.41-.24,1.66.34.82,1.88,2,1.76,3.83,1.48a18.29,18.29,0,0,1,8.41,1.08c-1.11,1.3.13,3.41-1.69,4.54s-1.13,1.92.43,2.65c3.71,1.75,7.64,2,11.63,1.8.65,0,1.56.36,1.87-.44.38-1-.55-1.44-1.19-1.78-2.12-1.11-4.3-2.11-7.2-3.51a19,19,0,0,1,2.72-.23,17.45,17.45,0,0,1,6.42,2.14c.78.41,1.89,1.26,2.74.5s-.2-1.77-.49-2.65a5.2,5.2,0,0,0-.25-.54c-.68-2.45.44-5.53-2.37-7.22-2.07-1.25-2-2.3-.54-4.22,4.48-6.08,2.87-11.21-3.71-12.5a16.84,16.84,0,0,0-3-.11c-.82,0-1.63,0-1.89-1,2.59-.06,5.19-.2,7.78-.15,4,.08,8,2.34,7.34,7.64-.28,2.15-.44,4.53.82,6.42a11.28,11.28,0,0,1,1.79,5.8c0,6,1.85,12-.11,18-.76,2.33-.87,5,2.7,5.61-2.12,2.07-4.32,4.09-3.53,7.52-1-.68-1.81-.7-1.72.73.31,5-2.49,9.36-2.83,14.21-.24,3.43-2.23,6-3.66,9C51.76,106.45,49.24,108.64,49.36,111.95Zm-1-35.65c3.94,0,6.31-2.31,6.34-5.89,0-1.54-.36-3.12,1.28-4.31.91-.66.54-1.81,0-2.73-.8-1.38-1.48-.19-2.18.13-3.79,1.71-7.65,2.45-11.66.83-1.23-.49-2.53-1.24-3.39.32-.76,1.39-1.28,2.86.39,4.24A28.31,28.31,0,0,1,44.48,74,5.19,5.19,0,0,0,48.4,76.29ZM24.73,53.76c.92.66.47,2.55,1.93,2.26A2.52,2.52,0,0,0,28,54c0-1.22-1.27-1.52-2.31-1.92a8.53,8.53,0,0,0-3.49-.42c-.83,0-1.91-.28-2.18.95-.14.64-.33,1.51.43,1.86s1.76,1.11,2.78.59A8.27,8.27,0,0,0,24.73,53.76ZM42,82.75c-2.58-1.37-4.08.06-5.51,1.58a1.22,1.22,0,0,0-.18,1.05c.17.46.68.4,1,.14C38.72,84.4,40.81,84.56,42,82.75Z"/><path class="cls-2" d="M64.8,72.39c-3.57-.57-3.46-3.28-2.7-5.61,2-6,.12-12,.11-18A11.28,11.28,0,0,0,60.42,43c-1.26-1.89-1.11-4.28-.82-6.42.7-5.3-3.34-7.56-7.34-7.64-2.59-.06-5.19.09-7.78.15L42.79,29c-2.13-.84-4-1.34-6.33.19s-10-3-10.35-5.63a1.67,1.67,0,0,1,.19-.85c.79-1.64,1.73-3.12.18-5-.72-.88.78-1,1.35-1.41.83-.58,1.62-1.21,2.42-1.82-1.42-1.36,0-2.8-.12-4.19l1.19,0c.52.7,1.21,2.53,1.87,1.49,1.89-3,4-1.42,6.16-1,1.13.22,2.7.42,1.56-1.68l0,0c2.73-.25,3.62-2.48,2.7-4.21-1.33-2.49.22-2.83,1.6-3.65C51.45.4,56.45,3.32,61,6.85c1.73,1.35,3.59.49,5.15,1.59.56.4,1.49.29,1.71,1.23-1.11.06-2.72.2-1.89,1.66A10.64,10.64,0,0,1,67,15.9c.31,3.46,2.1,4.42,5.19,4C78,22.8,81.73,31.31,80.25,37.72a10.34,10.34,0,0,0-.31,2.61c.1,4.15-1.2,7.93-2.86,11.64a5.6,5.6,0,0,0-.71,2.77c.52,3.81-2,6.79-2.62,10.31A2.68,2.68,0,0,1,71,67.23c-.1-.78,0-1.74-.94-2s-1.24.74-1.69,1.34a11.65,11.65,0,0,1-2.43,2.19c-1.16.87-2,2-1.06,3.6ZM45,5.53a9.66,9.66,0,0,0,6.2,1.8c.55,0,1.35.14,1.39-.69s-.75-1.09-1.46-1.1C49.13,5.51,47.08,5.53,45,5.53ZM31.69,16.13l-.49-.22c-.07.16-.23.36-.19.48s.3.16.46.23Z"/><path class="cls-3" d="M2.55,164.39c1.09-1.52,0-3.18.32-4.87.69-3.31,2.8-5.11,5.27-6.79.95-.65,2-1.59,2-2.51-.19-7.7,6.59-8.56,11.21-11.45.76-.47,1.56-3.05,3.38-.73.3.39,1.38-3.6.14-4.88a22.07,22.07,0,0,1-4.91-7.62l2.93,0,5.35,6.63c.76,1.84,2.59,2.77,3.86,4.14.85.92,1.84-1.72,3.44-1.39.71.15,1.12-1.18,2.5-.58-2.25,3.2-4.51,6.43-4.51,10.43,0,2.52-1.66,4.94-.43,7.51-.35,1.14-.94,2.19-1.34,3.28-1.08,2.93-3.55,5.32-3.41,8.72-3.21-.51-6.42.67-9.64,0-.05-6.23,2.78-12,3-18.21-1.23,2.23-3.53,4-2.61,7.07a2.5,2.5,0,0,1-.69,2.19c-3.29,2.36-2.57,5.76-2.58,9Z"/><path class="cls-4" d="M19.28,45.65a2.13,2.13,0,0,0-1.73.77l-1.18-.08A2.47,2.47,0,0,0,16,46c1.06-2.43.77-5.11,1.35-7.63.19-.83.55-2-.21-2.56-1-.79-2.1.14-3.11.35-1.26.26-1.82,1.49-2.23,2.63A125.92,125.92,0,0,0,6.34,58c-.39,2.15.27,4.4-.65,6.51-.31.72-.46,1.75-1.51,1.38-.74-.26-.56-1.2-.49-1.87.45-4-.15-7.56-2.81-10.76-2.39-2.88.77-4.36,2-6.08,1.41-1.92,1.45-1.62,0-4-.79-1.24-.08-3,.13-4.49,0-.22.63-.5.59-.57-1.7-3.56,0-6.58,1-9.94s1.76-6.61,4-9.12c.82-.9.84-2.5,2.31-2.82l.55-.61,0,0,.64-.64,0,0c2.31.05-.41,1.49.68,2.32,1.95,1.48,1.14,4.73-1.16,5.68-1.74.72-3.09,1.34-2.75,3.91s2.6,4.31,2.51,7.24c.68-1.76,1.55-2.81,3.3-3,.64-.08,1-.88,1.1-1.63,1-1,2.71-1,3.5-2.37-.43,2-.83,4.06,2.46,3.46l1.71.8.25,1.08-1.37,2.91c-1.05,1-.66,2.12-.25,3.24a2.15,2.15,0,0,1-.53,2.67C20.13,42.46,19.74,44.06,19.28,45.65Z"/><path class="cls-5" d="M19.32,81.74,20,83.82a15.51,15.51,0,0,1-2.6,2.7c-.75.48-2.45-.09-2.23,1.68l-.07.11c-.37-.13-.88-.14-1.09-.4-4.08-4.8-5.15-10.26-3.61-16.34.69-2.71,2.77-4.85,3-7.7.35-4.27.58-8.54-1.15-12.62l1.65-.2,1.64.47c.13,1,1,1.4,1.69,2s1.16,1.38.12,2.2c-1.95,1.55-.47,2.82.66,3.52,1.52.94,3.11,1.8,5.28,1,1.7-.6,3.76-.17,5.65-.2a19.75,19.75,0,0,0-1.2,5.31,6.65,6.65,0,0,0-2.4,2.46,31.2,31.2,0,0,1-2.53,1.87c-1.3.78-.62,1.3.14,1.86.46,1,1.85,1.36,1.92,2.66-.38,2.17,1.71,4.22.32,6.57C25,81,26.9,83.28,28.77,83c.93-.12,1.84-.21,2.32.79A1.16,1.16,0,0,1,31,84.9c-.77.65-1.66.22-2.54.16-3.94-.27-6.29-2.63-8.06-5.85-.15-.28-.65-.37-1-.54C19,77.58,17.73,77.5,17,76.78c.07-1-.43-2.23.8-3,2.31-1.38,2.93-3.76,3.74-6.06-.87-.63-1.57.15-2.34.12-5.18-.18-8.15,2.6-7.56,7.67.4,3.41,1.66,6.72,2.54,10.1,2.82-.82,1.69-4.19,3.93-5.12h1.21l0,0Z"/><path class="cls-4" d="M57.13,164.39c-1.49-4.55.76-7.72,4.13-10.16,2.71-2,5.19-4.15,7.81-6.2,1-.82,1.15-2.05,1.85-3s1.25-2,2.61-1.34a2.41,2.41,0,0,1,1.57,2.62c-.07.66-1,1.58.4,1.92,1,.25,1.34-.6,1.87-1.18,1.08-1.17,2.23-2.29,3.36-3.42.35-.35.79-.75,1.28-.38s.3.9,0,1.35c-.83,1.46-1.73,2.89-2.49,4.38a132.84,132.84,0,0,0-6.78,15.36Z"/><path class="cls-5" d="M22.57,88.27c.7.16.91.56.87,1.29-.19,3.35,1.78,5.17,5.13,4.8a3.4,3.4,0,0,1,1.77,0c2.66,1.41,5,1.38,7.2-1.88-.37,4.64-3.17,8-7.48,8.12-3,.07-5.64,1.05-8.41,1.76-1.2,0-1.6-1-2.06-1.85-.47-2.44-.37-5.09-2.59-6.87l-.34-3.55C18.93,90.44,20.75,89.34,22.57,88.27Z"/><path class="cls-1" d="M45.25,1.23c-1.39.82-2.93,1.16-1.6,3.65.92,1.72,0,4-2.7,4.21l-.28-.24.25.27c1.15,2.09-.43,1.9-1.56,1.68-2.18-.43-4.27-2-6.16,1-.66,1-1.34-.78-1.87-1.49.57-1.24.75-3.06,2.9-1.45.44.33,1.74-.1,2.36-.57a1.38,1.38,0,0,0-.28-1.87,1.89,1.89,0,0,0-2.49,0c-1,1.22-2.82.28-3.74,1.55-.47-.26-1.93.55-1.16-1,.53-1.11.92-2.37,2.35-2.72,2.57.33,4.39-2.4,7.09-1.4L37.95.19C40.38.6,43.09-1,45.25,1.23Z"/><path class="cls-4" d="M12.21,51.25c1.73,4.08,1.5,8.36,1.15,12.62-.23,2.85-2.32,5-3,7.7C8.82,77.65,9.89,83.11,14,87.91c.22.26.72.27,1.09.4-.81,2-2.63,2.16-4.27.19A15.08,15.08,0,0,1,7.45,76,39.6,39.6,0,0,1,9.7,68.79c1.67-4.76.56-9.8,1.22-14.67C11.07,53,10.46,51.62,12.21,51.25Z"/><path class="cls-4" d="M28.31,164.32c-.14-3.39,2.33-5.79,3.41-8.72.4-1.09,1-2.14,1.34-3.28-.13-2.19,1.82-3.38,2.47-5.2,2.61-.63,3.45-3.18,4.9-4.92,1.12-1.33,2.53-2.37,3.33-3.89,1,.45.75,1.07.42,1.53a114.72,114.72,0,0,0-10.11,16.68c-1.21,2.5-2.37,5-2.12,7.87Z"/><path class="cls-5" d="M15.78,29.58c-.08.75-.46,1.56-1.1,1.63-1.75.2-2.62,1.26-3.3,3C11.47,31.3,9.21,29.6,8.87,27s1-3.19,2.75-3.91c2.3-1,3.11-4.2,1.16-5.68-1.09-.83,1.63-2.27-.68-2.32.43-1.08,1.61-1.13,2.38-1.75a1.69,1.69,0,0,0,1.25,1.15l0,0c-.24,1.86,2,1.6,2.45,2.9.18,1.54-2.36,1-2,2,1.23,3-.31,4.16-2.78,4.92,0,0,0,.19-.05.28l-.14.14c-1.78,0-1.43,1.2-1.55,2.39s.73.81,1.13,1C13.78,28.74,14.8,29.13,15.78,29.58Z"/><path class="cls-4" d="M18.21,17.41c-.43-1.3-2.69-1-2.45-2.9l.14-.24-.16.22a1.69,1.69,0,0,1-1.25-1.15C16.57,8.94,19.72,6,24.83,5.62l.5,2-.39.5v.21l.22.09.19.22c-.3.53-1.18.52-1.2,1.3a6.67,6.67,0,0,0-.76.37c.9,2.58-.37,3.22-2.65,3.08-.25,0-.69.44-.75.73-.11.54.23.84.83,1,.42.09,1.59-.89,1.16.62-.19.66,0,1.71-1.17,1.76-.69,0-1.37,0-2.06.07A1,1,0,0,0,18.21,17.41Z"/><path class="cls-2" d="M49.36,111.95c-.12-3.3,2.4-5.49,3.7-8.14,1.44-2.93,3.42-5.52,3.66-9,.34-4.85,3.14-9.21,2.83-14.21-.09-1.43.75-1.41,1.72-.73a1.09,1.09,0,0,1,0,.59,4.17,4.17,0,0,0-.38,2.59C61.14,94.34,56.44,103.62,49.36,111.95Z"/><path class="cls-5" d="M27.29,112.86c1.07.21,1.21,1,.94,1.81a4.44,4.44,0,0,0,0,3.45,1.66,1.66,0,0,1-.48,2.16,1.69,1.69,0,0,1-2.35-.63c-1.94-2.85-4.66-5.15-6-8.4A5.49,5.49,0,0,0,16.48,108c0-1.65-1.08-3.15-.67-4.86,2.58,1.69,3,5,5.18,7a27.05,27.05,0,0,1,1.92,2.26C25.21,115.07,25.87,115.13,27.29,112.86Z"/><path class="cls-5" d="M15.78,164.41c0-3.23-.71-6.63,2.58-9a2.5,2.5,0,0,0,.69-2.19c-.92-3.08,1.38-4.84,2.61-7.07-.2,6.23-3,12-3,18.21Z"/><path class="cls-3" d="M16.13,117.13c-2.77,1.71-3.19,1.54-6.48-2.6a2,2,0,0,1,1.11-1.69c2.51.35,2.84-1.2,2.55-3.07-.24-1.53-.74-3-1.12-4.52.75-.54.48-2.31,2.13-1.79.19,3.37-.41,6.86,1.46,10C15.31,114.72,16.31,115.87,16.13,117.13Z"/><path class="cls-4" d="M45.74,164c1.55-5.71,3-11.44,5.86-16.7.35-.66.32-2,1.3-1.62s.44,1.44.2,2.27c-1.61,5.5-4.48,10.63-5,16.47C47.32,164.39,46.41,164.86,45.74,164Z"/><path class="cls-4" d="M12.18,105.25c.38,1.5.88,3,1.12,4.52.29,1.87,0,3.43-2.55,3.07a12.69,12.69,0,0,0-.3-5.85c-1.4-4.67-.75-9.41-.12-14.12.07-.53.21-1,.82-1a1.31,1.31,0,0,1,1.54,1.38C11,97.16,10.33,101.15,12.18,105.25Z"/><path class="cls-2" d="M15.76,113.44c-1.87-3.12-1.27-6.61-1.46-10a1.58,1.58,0,0,1,1.41-.68,1.28,1.28,0,0,1,.1.4c-.41,1.71.68,3.21.67,4.86a55,55,0,0,0,4.27,10.47c.56.95.31,1.94.4,2.91l-1.26-.1L18.84,120C17.94,117.75,18.25,114.94,15.76,113.44Z"/><path class="cls-5" d="M15.72,102.78a1.58,1.58,0,0,0-1.41.68c-1.65-.53-1.37,1.24-2.13,1.79-1.84-4.09-1.22-8.09.5-12C14.72,96.07,14.88,99.53,15.72,102.78Z"/><path class="cls-4" d="M27.29,112.86c-1.42,2.27-2.08,2.2-4.37-.43,1.43-2-.33-3.91-.29-5.89a21.09,21.09,0,0,0-.48-3.45l2.4.32c.22.75.23,1.62,1.17,1.94l.29,1.53c.2,1.85-1.11,4,1.11,5.44A1.26,1.26,0,0,0,27.29,112.86Z"/><path class="cls-1" d="M72.19,19.86c-3.09.46-4.88-.5-5.19-4a10.64,10.64,0,0,0-1.07-4.56c-.83-1.47.78-1.61,1.89-1.66C69.67,12.9,70,16.79,72.19,19.86Z"/><path class="cls-4" d="M22.57,88.27c-1.83,1.07-3.65,2.17-5.91,1.85L15.13,88.2c-.22-1.77,1.48-1.19,2.23-1.68a15.51,15.51,0,0,0,2.6-2.7C22.38,84.39,21.54,86.89,22.57,88.27Z"/><path class="cls-1" d="M64.83,72.33c-.89-1.57-.1-2.73,1.06-3.6a11.65,11.65,0,0,0,2.43-2.19c.45-.6.64-1.65,1.69-1.34s.84,1.24.94,2c-.41.17-.92,0-1.21.62A7.81,7.81,0,0,1,64.83,72.33Z"/><path class="cls-3" d="M25.33,7.62l-.5-2c2-.71,4.12-1.13,5.82-2.52a1.09,1.09,0,0,1,.61,1.14c-1.43.35-1.81,1.62-2.35,2.72-.77,1.59.69.78,1.16,1-.31,1.57-1.37,1.24-2.1.6S26.18,8,25.33,7.62Z"/><path class="cls-5" d="M31.27,4.24a1.09,1.09,0,0,0-.61-1.14C32.41.42,35.42.9,37.95.19l.41,2.65C35.66,1.83,33.84,4.56,31.27,4.24Z"/><path class="cls-4" d="M15.5,51.52,13.86,51c.38-1.83-.07-4,2.17-5.06a2.55,2.55,0,0,1,.34.35c0,.52.08,1,.64,1.16l-.22,1.76a2.55,2.55,0,0,0-1.17,2.3Z"/><path class="cls-4" d="M17,93.67c2.22,1.78,2.13,4.43,2.59,6.87A6.34,6.34,0,0,1,17,93.67Z"/><path class="cls-4" d="M8,93.11c.17-.54.3-1.15,1.08-1.05.3,0,.59.24.41.56-.33.62-1,.29-1.52.46Z"/><path class="cls-5" d="M12.14,15.07l-.64.64Z"/><path class="cls-5" d="M11.54,15.66l-.55.61Z"/><path class="cls-4" d="M3.75,92.52,4,92.21c0,.06,0,.15,0,.18a.84.84,0,0,1-.23.1Z"/><path class="cls-4" d="M3.73,92.49l-.29.39c-.3-.47.11-.33.32-.36Z"/><path class="cls-4" d="M7.35,93.72l.61-.6,0,0-.61.61Z"/><path class="cls-5" d="M35.53,147.13c-.65,1.82-2.6,3-2.47,5.2-1.23-2.57.43-5,.43-7.51,0-4,2.26-7.24,4.51-10.43-1.38-.6-1.79.73-2.5.58-1.6-.33-2.59,2.31-3.44,1.39-1.27-1.37-3.09-2.3-3.86-4.14,1.36-.26,2.81-.33,3.67-1.69a11.14,11.14,0,0,1,3.73-.82c3.2-.07,5.52-1.29,6-4.8,1.2-.67,1.48-2.06,2.33-3s1.1-.27,1.32.49c-.94,2.14-1.67,4.23,1.24,5.5,1,.56,2.07,2,3.14.92a10.09,10.09,0,0,0,2-4c.32-.94-.66-1-1.35-1.15-1.15-.27-.7-1-.37-1.58s.84-.62,1.37-.07c1.4,1.45,2.36.94,3.61-.46,4.14-4.63,6.67-10.28,10.07-15.38,1.73-2.6,2.76-5.67,5.21-8,.51,2.08-.64,3.52-1.54,4.85-6,8.9-11.09,18.39-17.66,26.9-1,1.34-2.11,2.65-3.23,3.91s-2.35,3.59-4,.21c-.78-1.59-2.06-1.43-3.39-.18A14.81,14.81,0,0,0,35.53,147.13Z"/><path class="cls-4" d="M41.56,124.9c-.44,3.51-2.76,4.73-6,4.8a11.14,11.14,0,0,0-3.73.82,1.85,1.85,0,0,1,1.79-2c2.89-.3,4.94-2.21,7.23-3.67Z"/><path class="cls-1" d="M46.46,127.89c-2.91-1.27-2.18-3.36-1.24-5.5,2.1.81,3.13,1.95,1.37,4.1C46.34,126.78,46.49,127.41,46.46,127.89Z"/><path class="cls-5" d="M19.28,45.65c.46-1.59.85-3.19,2.27-4.29a2.15,2.15,0,0,0,.53-2.67c-.41-1.12-.81-2.24.25-3.24,6,1.8,9.14,1.2,12.94-3.09a5.6,5.6,0,0,1,4.84-2.27c1,.06,2.29.53,2.69-1.06l1.68.06c.26,1,1.07,1,1.89,1a16.84,16.84,0,0,1,3,.11c6.58,1.29,8.19,6.42,3.71,12.5-1.42,1.92-1.54,3,.54,4.22,2.81,1.69,1.69,4.77,2.37,7.22-2.33-2.95-5.64-2.54-8.81-2.56-2.06,0-4.12.05-6.19.08a18.29,18.29,0,0,0-8.41-1.08c-1.79.28-3,.4-3.83-1.48-.25-.58-1.07-.39-1.66-.34a4.2,4.2,0,0,0-.5-.1C26.26,47.27,25.22,47,24,47.05a1.9,1.9,0,0,1-.5-.1c0-.92-.45-1.28-1.36-1l-1.39,0Z"/><path class="cls-5" d="M48.4,76.29A5.19,5.19,0,0,1,44.48,74a28.31,28.31,0,0,0-5.3-5.13C37.52,67.51,38,66,38.79,64.65c.86-1.56,2.17-.82,3.39-.32,4,1.62,7.87.87,11.66-.83.7-.31,1.38-1.51,2.18-.13.53.92.91,2.07,0,2.73-1.64,1.18-1.27,2.77-1.28,4.31C54.71,74,52.33,76.3,48.4,76.29Z"/><path class="cls-2" d="M40.94,51.7c2.06,0,4.12-.1,6.19-.08,3.17,0,6.49-.39,8.81,2.56a5.27,5.27,0,0,1,.25.54c.29.88,1.47,1.77.49,2.65s-2-.08-2.74-.5a17.45,17.45,0,0,0-6.42-2.14,19,19,0,0,0-2.72.23c2.9,1.4,5.08,2.4,7.2,3.51.64.34,1.57.83,1.19,1.78-.32.8-1.22.41-1.87.44-4,.17-7.92,0-11.63-1.8-1.56-.74-2.15-1.59-.43-2.65S39.83,53,40.94,51.7Z"/><path class="cls-5" d="M29.7,55.47c0-.72-.55-1.88.8-1.67,1.59.24,3.57.3,3.8,2.58A15.35,15.35,0,0,1,33,64.19c-.74,1.64-.92,3-.06,4.39,1.29,2.1.21,2.71-1.62,3.28-1.52.48-3.23-.24-4.6.86l-.85-1.86.32-2.24a2.78,2.78,0,0,0,2.23-3.28.56.56,0,0,0-.05-.36L29,64.3c2.15-2.14,1.84-5,2.28-7.67C31.44,55.57,30.63,55.32,29.7,55.47Z"/><path class="cls-2" d="M24.73,53.76a8.27,8.27,0,0,1-1.51,1.31c-1,.52-1.92-.2-2.78-.59s-.58-1.22-.43-1.86c.27-1.23,1.35-.92,2.18-.95a8.53,8.53,0,0,1,3.49.42c1,.4,2.28.7,2.31,1.92a2.52,2.52,0,0,1-1.34,2C25.2,56.31,25.65,54.42,24.73,53.76Z"/><path class="cls-2" d="M20.74,46l1.4,0a1.36,1.36,0,0,0,1.36,1,1.85,1.85,0,0,0,.5.1,2.57,2.57,0,0,0,2.55,1.65,4.2,4.2,0,0,1,.5.1L28,51.12a23.46,23.46,0,0,1-6.69-1.58C18.57,48.46,19.41,47.42,20.74,46Z"/><path class="cls-3" d="M29.7,55.47c.92-.15,1.74.11,1.56,1.16-.45,2.64-.14,5.53-2.29,7.67l-.64.69a.56.56,0,0,1,.05.36l-.68,0a19.74,19.74,0,0,1,1.2-5.3C29.07,58.52,29.93,57.09,29.7,55.47Z"/><path class="cls-2" d="M42,82.75c-1.24,1.81-3.33,1.65-4.7,2.78-.31.26-.82.31-1-.14a1.22,1.22,0,0,1,.18-1.05C38,82.81,39.47,81.38,42,82.75Z"/><path class="cls-5" d="M19.9,121.32l1.26.1c.57,1.39,1.67,2.56,1.71,4.17l-2.93,0c-.83-.68-.54-1.6-.53-2.46C20.16,122.66,19.84,121.94,19.9,121.32Z"/><path class="cls-4" d="M25.85,70.86l.85,1.86q.06,1.16.12,2.32l-.24.8-1.74-1.6c-.07-1.3-1.46-1.64-1.92-2.66C23.9,71.38,25,71.77,25.85,70.86Z"/><path class="cls-2" d="M17,76.78c.73.72,2,.8,2.4,1.89l-.07,1.86H18.12c-.58-.88-1.13-1.79-1.73-2.65S16.47,77,17,76.78Z"/><path class="cls-5" d="M27.11,112.32c-2.22-1.43-.91-3.59-1.11-5.44C28.24,108.31,26.67,110.52,27.11,112.32Z"/><path class="cls-5" d="M15.63,51.55a2.55,2.55,0,0,1,1.17-2.3C18,50.84,16.58,51.07,15.63,51.55Z"/><path class="cls-5" d="M25.71,105.36c-.93-.32-.95-1.19-1.17-1.94C25.7,103.6,26,104.29,25.71,105.36Z"/><path class="cls-5" d="M26.57,75.84l.24-.8c.47.13,1,.33.64.91C27.22,76.36,26.83,76.17,26.57,75.84Z"/><path class="cls-5" d="M17,47.5c-.56-.2-.67-.64-.64-1.16l1.18.08A1.07,1.07,0,0,1,17,47.5Z"/><path class="cls-2" d="M19.32,81.74V80.5C20,80.91,19.92,81.32,19.32,81.74Z"/><path class="cls-1" d="M42.79,29c-.4,1.59-1.72,1.12-2.69,1.06a5.6,5.6,0,0,0-4.84,2.27c-3.8,4.29-6.93,4.89-12.94,3.09l1.37-2.91c.78-.17,1.3-.6.8-1.38-.4-.62-.78-.09-1.05.3l-1.71-.8c.83-1.41-1.88-1.84-1-2.77.59-.61,1.81-.68.63-1.63-.89-.72-1.9-.49-2.1.94-.79,1.34-2.5,1.34-3.5,2.37-1-.45-2-.84-2.92-1.38-.4-.23-1.24.1-1.13-1s-.22-2.38,1.55-2.39l.34.2-.2-.34c0-.1,0-.27.05-.28,2.47-.77,4-1.89,2.78-4.92-.41-1,2.14-.47,2-2a1,1,0,0,1,.55.12c1,1.55,2.51,1.45,4.05,1.21-.71-2.36.94-3.11,2.54-4.18a45,45,0,0,0,4.8-4.25c.15,1.39-1.3,2.84.12,4.19-.81.61-1.6,1.24-2.42,1.82-.57.4-2.07.53-1.35,1.41,1.54,1.89.6,3.37-.18,5a1.67,1.67,0,0,0-.19.85c.3,2.59,8.14,7.1,10.35,5.63S40.66,28.19,42.79,29Z"/><path class="cls-5" d="M30.14,10.31a45,45,0,0,1-4.8,4.25c-1.6,1.07-3.25,1.82-2.54,4.18-1.54.25-3,.34-4.05-1.21.69,0,1.38,0,2.06-.06,1.17-.05,1-1.11,1.17-1.76.44-1.51-.74-.54-1.16-.62-.59-.12-.94-.43-.83-1,.06-.29.5-.75.75-.73,2.28.14,3.54-.5,2.65-3.08a6.37,6.37,0,0,1,.76-.36c.52.18,1.11.39,1.5-.13a.78.78,0,0,0-.3-1.17l-.18-.22a.24.24,0,0,0-.23-.3l.39-.5c.85.38,1.83.26,2.64,1s1.8,1,2.1-.6c.91-1.26,2.7-.33,3.74-1.54a1.89,1.89,0,0,1,2.49,0,1.38,1.38,0,0,1,.28,1.87c-.61.47-1.92.89-2.36.57-2.15-1.61-2.33.21-2.9,1.45Z"/><path class="cls-1" d="M45,5.53c2,0,4.09,0,6.14,0,.71,0,1.5.21,1.46,1.1s-.84.66-1.39.69A9.66,9.66,0,0,1,45,5.53Z"/><path class="cls-1" d="M31.69,16.13l-.21.49c-.16-.07-.42-.11-.46-.23s.12-.32.19-.48Z"/><path class="cls-5" d="M15.76,113.44c2.49,1.5,2.18,4.31,3.07,6.56l-1.32,1.44c-.59-1.4-.31-3.07-1.39-4.31C16.31,115.87,15.31,114.72,15.76,113.44Z"/><path class="cls-3" d="M17.52,121.44,18.84,120l1.06,1.32c-.06.62.25,1.34-.5,1.76A1.68,1.68,0,0,1,17.52,121.44Z"/><path class="cls-5" d="M19.28,27.21c.2-1.43,1.21-1.67,2.1-.94,1.18,1,0,1-.63,1.63-.89.93,1.82,1.36,1,2.77C18.45,31.26,18.85,29.25,19.28,27.21Z"/><path class="cls-5" d="M23.45,31.47c.28-.39.66-.92,1.05-.3.5.78,0,1.21-.8,1.38Z"/><path class="cls-1" d="M17,76.78c-.53.18-1.22.24-.62,1.1s1.16,1.76,1.73,2.65c-2.24.92-1.11,4.29-3.93,5.12C13.31,82.26,12,79,11.64,75.54c-.59-5.07,2.37-7.85,7.56-7.67.77,0,1.47-.75,2.34-.12-.8,2.3-1.43,4.69-3.74,6.06C16.57,74.55,17.07,75.73,17,76.78Z"/><path class="cls-6" d="M25.85,70.86c-.82.91-1.95.52-2.94.71-.76-.57-1.44-1.08-.14-1.86a31.21,31.21,0,0,0,2.53-1.87l.86.78Z"/><path class="cls-4" d="M26.17,68.63l-.86-.78a6.65,6.65,0,0,1,2.4-2.46l.69,0A2.78,2.78,0,0,1,26.17,68.63Z"/><path class="cls-2" d="M40.92,9.12l-.25-.27.28.24Z"/><path class="cls-3" d="M25.36,8.64a.78.78,0,0,1,.3,1.17c-.4.53-1,.32-1.5.13C24.18,9.16,25.06,9.16,25.36,8.64Z"/><path class="cls-3" d="M24.95,8.12a.24.24,0,0,1,.23.3L25,8.33Z"/><path class="cls-5" d="M15.73,14.49l.16-.22-.14.24Z"/><path class="cls-1" d="M26.54,48.7A2.57,2.57,0,0,1,24,47.05C25.22,47,26.26,47.27,26.54,48.7Z"/><path class="cls-1" d="M23.49,47a1.36,1.36,0,0,1-1.36-1C23,45.67,23.47,46,23.49,47Z"/><path class="cls-4" d="M28.34,65,29,64.3Z"/><path class="cls-5" d="M13.42,24.63l.2.34-.34-.2Z"/></g></g></svg>